<svg id="Carinho" xmlns="http://www.w3.org/2000/svg" width="36.12" height="30.563" viewBox="0 0 36.12 30.563">
  <path id="Caminho_2" data-name="Caminho 2" d="M365.446,368.231a2.779,2.779,0,1,0,.814-1.965A2.677,2.677,0,0,0,365.446,368.231Z" transform="translate(-337.662 -340.446)" fill="#fff"/>
  <path id="Caminho_3" data-name="Caminho 3" d="M35.707,39.734a1.335,1.335,0,0,0-.977-.413H8.661q-.022-.152-.1-.553t-.119-.641a3.829,3.829,0,0,0-.163-.575A1.731,1.731,0,0,0,8,37.021a1.385,1.385,0,0,0-.434-.337,1.325,1.325,0,0,0-.619-.141H1.389a1.336,1.336,0,0,0-.977.412,1.363,1.363,0,0,0,0,1.954,1.336,1.336,0,0,0,.977.412H5.817L9.659,57.186q-.043.087-.445.825T8.574,59.3a2.384,2.384,0,0,0-.239.858A1.408,1.408,0,0,0,9.725,61.55H31.951a1.389,1.389,0,0,0,0-2.779H11.982a4.191,4.191,0,0,0,.521-1.389,2.346,2.346,0,0,0-.054-.478q-.054-.26-.13-.575t-.1-.466l22.662-2.648a1.348,1.348,0,0,0,.89-.467,1.368,1.368,0,0,0,.347-.922V40.711A1.336,1.336,0,0,0,35.707,39.734Z" transform="translate(0 -36.543)" fill="#fff"/>
  <path id="Caminho_4" data-name="Caminho 4" d="M109.632,368.231a2.779,2.779,0,1,0,.814-1.965A2.675,2.675,0,0,0,109.632,368.231Z" transform="translate(-101.297 -340.446)" fill="#fff"/>
</svg>
