<svg id="man-user" xmlns="http://www.w3.org/2000/svg" width="23.247" height="30.563" viewBox="0 0 23.247 30.563">
  <path id="Caminho_6" data-name="Caminho 6" d="M110.688,14.948c3.4,0,6.153-3.346,6.153-7.474S115.937,0,110.688,0s-6.153,3.346-6.153,7.474S107.29,14.948,110.688,14.948Z" transform="translate(-99.065)" fill="#fff"/>
  <path id="Caminho_7" data-name="Caminho 7" d="M41.9,300.5c0-.252,0-.071,0,0Z" transform="translate(-41.895 -274.142)" fill="#fff"/>
  <path id="Caminho_8" data-name="Caminho 8" d="M308.085,301.715c0-.069,0-.478,0,0Z" transform="translate(-284.84 -275.159)" fill="#fff"/>
  <path id="Caminho_9" data-name="Caminho 9" d="M65.139,188.276c-.114-7.19-1.053-9.239-8.239-10.536a4.308,4.308,0,0,1-3.369,1.289,4.308,4.308,0,0,1-3.369-1.289c-7.108,1.283-8.1,3.3-8.235,10.3-.011.572-.016.6-.018.535,0,.124,0,.354,0,.755,0,0,1.711,3.449,11.621,3.449s11.621-3.449,11.621-3.449c0-.258,0-.437,0-.559A4.625,4.625,0,0,1,65.139,188.276Z" transform="translate(-41.907 -162.219)" fill="#fff"/>
</svg>
